HIERARCHY
ROOT 00
{
	OFFSET -0.002722 -0.275211 0.029244
	CHANNELS 6 Xposition Yposition Zposition Xrotation Yrotation Zrotation
	JOINT 01
	{
		OFFSET 0.067958 -0.108350 -0.013373
		CHANNELS 3 Xrotation Yrotation Zrotation
		JOINT 04
		{
			OFFSET 0.030473 -0.389948 -0.004933
			CHANNELS 3 Xrotation Yrotation Zrotation
			JOINT 07
			{
				OFFSET -0.013689 -0.424420 -0.047589
				CHANNELS 3 Xrotation Yrotation Zrotation
				JOINT 10
				{
					OFFSET 0.003986 -0.059328 0.116825
					CHANNELS 3 Xrotation Yrotation Zrotation
					End Site
					{
						OFFSET 0 0 0
					}
				}
			}
		}
	}
	JOINT 02
	{
		OFFSET -0.062246 -0.106643 -0.002519
		CHANNELS 3 Xrotation Yrotation Zrotation
		JOINT 05
		{
			OFFSET -0.039794 -0.403082 -0.002159
			CHANNELS 3 Xrotation Yrotation Zrotation
			JOINT 08
			{
				OFFSET 0.019040 -0.422077 -0.042243
				CHANNELS 3 Xrotation Yrotation Zrotation
				JOINT 11
				{
					OFFSET -0.005985 -0.042329 0.112309
					CHANNELS 3 Xrotation Yrotation Zrotation
					End Site
					{
						OFFSET 0 0 0
					}
				}
			}
		}
	}
	JOINT 03
	{
		OFFSET -0.003265 0.126484 -0.018556
		CHANNELS 3 Xrotation Yrotation Zrotation
		JOINT 06
		{
			OFFSET 0.006424 0.178783 0.002876
			CHANNELS 3 Xrotation Yrotation Zrotation
			JOINT 09
			{
				OFFSET -0.000354 0.060611 0.032919
				CHANNELS 3 Xrotation Yrotation Zrotation
				JOINT 12
				{
					OFFSET -0.001649 0.260542 -0.081469
					CHANNELS 3 Xrotation Yrotation Zrotation
					JOINT 15
					{
						OFFSET 0.005934 0.074012 0.054189
						CHANNELS 3 Xrotation Yrotation Zrotation
						End Site
						{
							OFFSET 0 0 0
						}
					}
				}
				JOINT 13
				{
					OFFSET 0.067646 0.140674 -0.054989
					CHANNELS 3 Xrotation Yrotation Zrotation
					JOINT 16
					{
						OFFSET 0.075599 0.028715 0.006546
						CHANNELS 3 Xrotation Yrotation Zrotation
						JOINT 18
						{
							OFFSET 0.280934 -0.015333 -0.020459
							CHANNELS 3 Xrotation Yrotation Zrotation
							JOINT 20
							{
								OFFSET 0.258480 0.009808 0.003355
								CHANNELS 3 Xrotation Yrotation Zrotation
								JOINT 22
								{
									OFFSET 0.075546 -0.015673 -0.008918
									CHANNELS 3 Xrotation Yrotation Zrotation
									End Site
									{
										OFFSET 0 0 0
									}
								}
							}
						}
					}
				}
				JOINT 14
				{
					OFFSET -0.068415 0.137695 -0.054798
					CHANNELS 3 Xrotation Yrotation Zrotation
					JOINT 17
					{
						OFFSET -0.081406 0.029093 -0.000244
						CHANNELS 3 Xrotation Yrotation Zrotation
						JOINT 19
						{
							OFFSET -0.281374 -0.019086 -0.009475
							CHANNELS 3 Xrotation Yrotation Zrotation
							JOINT 21
							{
								OFFSET -0.278499 0.012992 -0.009418
								CHANNELS 3 Xrotation Yrotation Zrotation
								JOINT 23
								{
									OFFSET -0.076459 -0.010363 -0.010215
									CHANNELS 3 Xrotation Yrotation Zrotation
									End Site
									{
										OFFSET 0 0 0
									}
								}
							}
						}
					}
				}
			}
		}
	}
}
MOTION
Frames: 11
Frame Time: 1.00000000
-0.002722 -0.275211 0.029244 -1.363605 -5.062598 0.188998 0.299559 6.643877 -0.100688 5.508518 0.781402 -0.481989 -4.419707 0.014528 0.336299 0.000000 0.000000 0.000000 -5.791884 -7.447942 1.218830 15.659221 2.927416 -1.095944 -8.457091 0.180399 -1.791428 0.000000 0.000000 0.000000 0.286300 -0.203914 0.537498 -1.199326 -0.064715 -0.167299 -1.199583 -0.061923 -0.165778 1.031543 5.023304 2.723186 0.000000 0.000000 0.000000 0.799932 5.226828 -13.601748 3.577331 -22.246033 -65.414734 -0.638365 -7.743439 -4.930248 -13.728920 14.662542 2.380686 0.000000 -0.000000 0.000000 1.973933 -0.879064 21.928457 15.874724 27.065317 52.853165 -0.994791 13.682725 5.193507 -40.201149 -11.695431 -4.233353 0.000000 0.000000 0.000000 
-0.002722 -0.275211 0.029244 -1.360060 -5.080726 0.189890 0.308045 6.652419 -0.097783 5.487556 0.796688 -0.487981 -4.410456 0.013271 0.336090 0.000000 0.000000 0.000000 -5.794888 -7.436569 1.226443 15.657004 2.921414 -1.104663 -8.455207 0.179362 -1.788902 0.000000 0.000000 0.000000 0.290485 -0.208270 0.541153 -1.200655 -0.066430 -0.169523 -1.200924 -0.063603 -0.167959 1.046680 5.002038 2.785180 0.000000 0.000000 0.000000 0.798366 5.228261 -13.595871 3.620032 -22.226324 -65.407669 -0.642316 -7.824482 -4.930952 -13.736014 14.705186 2.390686 0.000000 0.000000 0.000000 1.978799 -0.864374 21.971830 15.857643 26.959345 52.860668 -0.988504 13.572822 5.191767 -40.163883 -11.681233 -4.233482 0.000000 0.000000 0.000000 
-0.002722 -0.275211 0.029244 -1.358662 -5.101193 0.191275 0.340305 6.653351 -0.103205 5.425092 0.821410 -0.489102 -4.381188 0.012968 0.335548 0.000000 0.000000 0.000000 -5.775333 -7.433994 1.230751 15.625090 2.890159 -1.108937 -8.445808 0.176128 -1.782543 0.000000 0.000000 0.000000 0.294640 -0.212232 0.545265 -1.200477 -0.067911 -0.172374 -1.200753 -0.065071 -0.170773 1.049465 4.992961 2.825483 0.000000 0.000000 0.000000 0.796520 5.231152 -13.588548 3.643718 -22.210701 -65.404594 -0.644509 -7.869488 -4.931369 -13.730727 14.722898 2.400154 0.000000 0.000000 0.000000 1.982271 -0.856309 22.000031 15.789954 26.879738 52.918873 -0.978804 13.403380 5.189098 -40.151611 -11.651860 -4.171822 -0.000000 0.000000 0.000000 
-0.002722 -0.275211 0.029244 -1.357332 -5.123205 0.194216 0.369071 6.648127 -0.114335 5.371894 0.855638 -0.484444 -4.357513 0.010732 0.332879 0.000000 0.000000 0.000000 -5.756287 -7.435344 1.229624 15.597866 2.850543 -1.109817 -8.441439 0.172645 -1.775306 0.000000 0.000000 0.000000 0.298216 -0.213752 0.548427 -1.200779 -0.068449 -0.174381 -1.201061 -0.065591 -0.172766 1.041492 4.992253 2.840585 0.000000 0.000000 0.000000 0.794874 5.234283 -13.581844 3.654953 -22.198961 -65.403046 -0.645557 -7.891113 -4.931546 -13.716364 14.723629 2.406841 0.000000 0.000000 0.000000 1.983278 -0.862521 21.998405 15.676948 26.867998 53.026279 -0.965114 13.163548 5.185358 -40.181755 -11.587304 -4.074019 -0.000000 0.000000 0.000000 
-0.002722 -0.275211 0.029244 -1.355027 -5.148608 0.196087 0.384417 6.645536 -0.122324 5.344757 0.886841 -0.480500 -4.347686 0.012879 0.330384 0.000000 0.000000 0.000000 -5.752366 -7.433601 1.227536 15.588289 2.841582 -1.109678 -8.438874 0.171798 -1.773139 0.000000 0.000000 0.000000 0.300088 -0.213337 0.550657 -1.202409 -0.068287 -0.174786 -1.202692 -0.065389 -0.173172 1.034981 4.994470 2.850292 0.000000 0.000000 0.000000 0.793912 5.236310 -13.577868 3.659791 -22.191591 -65.400978 -0.646049 -7.901207 -4.931664 -13.697598 14.719304 2.408957 -0.000000 0.000000 0.000000 1.983218 -0.873616 21.985359 15.577501 26.886320 53.124245 -0.954203 12.972274 5.182405 -40.226139 -11.521605 -4.009795 0.000000 0.000000 0.000000 
-0.002722 -0.275211 0.029244 -1.352675 -5.177106 0.195688 0.379333 6.648728 -0.123066 5.356667 0.915892 -0.480108 -4.356862 0.013967 0.328687 0.000000 0.000000 0.000000 -5.766817 -7.426362 1.227133 15.603068 2.867614 -1.111275 -8.440182 0.173115 -1.775812 0.000000 0.000000 0.000000 0.300195 -0.212698 0.551937 -1.203985 -0.068102 -0.174196 -1.204267 -0.065150 -0.172584 1.033409 4.996985 2.870538 0.000000 0.000000 0.000000 0.793862 5.236242 -13.577722 3.664417 -22.188646 -65.397301 -0.646598 -7.912408 -4.931759 -13.680218 14.724353 2.407391 -0.000000 -0.000000 -0.000000 1.983022 -0.882066 21.974604 15.525518 26.891640 53.172329 -0.950869 12.913485 5.181540 -40.232605 -11.480801 -4.009833 -0.000000 0.000000 0.000000 
-0.002722 -0.275211 0.029244 -1.351828 -5.202721 0.194583 0.375035 6.652955 -0.122614 5.367491 0.939655 -0.482054 -4.364310 0.014521 0.329282 0.000000 0.000000 0.000000 -5.782115 -7.416631 1.229121 15.618743 2.901837 -1.117147 -8.439357 0.174581 -1.777101 0.000000 -0.000000 0.000000 0.299815 -0.212122 0.552795 -1.204097 -0.067925 -0.174140 -1.204381 -0.064937 -0.172532 1.029706 4.998566 2.895158 0.000000 0.000000 0.000000 0.794371 5.234637 -13.579999 3.671193 -22.189732 -65.393181 -0.647492 -7.930584 -4.931920 -13.666830 14.743923 2.405252 0.000000 0.000000 0.000000 1.981661 -0.895080 21.952284 15.485451 26.906649 53.197239 -0.950814 12.912489 5.181511 -40.184521 -11.444591 -4.037070 0.000000 0.000000 0.000000 
-0.002722 -0.275211 0.029244 -1.353916 -5.219003 0.193263 0.372821 6.654377 -0.123172 5.377476 0.957183 -0.483639 -4.370126 0.013663 0.331242 0.000000 0.000000 0.000000 -5.791646 -7.406883 1.233378 15.631927 2.919950 -1.127195 -8.439576 0.174984 -1.773631 0.000000 0.000000 0.000000 0.299928 -0.211343 0.553301 -1.203492 -0.067610 -0.175011 -1.203774 -0.064617 -0.173411 1.022943 4.996871 2.916823 0.000000 0.000000 0.000000 0.794528 5.233830 -13.580808 3.677328 -22.194017 -65.391533 -0.648504 -7.951324 -4.932119 -13.655701 14.769058 2.405314 0.000000 0.000000 0.000000 1.978766 -0.915892 21.912752 15.438581 26.958380 53.221989 -0.949799 12.894804 5.181245 -40.116413 -11.412371 -4.050120 -0.000000 0.000000 0.000000 
-0.002722 -0.275211 0.029244 -1.360567 -5.223545 0.188355 0.373973 6.657626 -0.119303 5.388865 0.962569 -0.484320 -4.376562 0.012773 0.332391 0.000000 0.000000 0.000000 -5.787580 -7.396248 1.242997 15.634988 2.918311 -1.137223 -8.439145 0.174432 -1.767848 0.000000 0.000000 0.000000 0.300659 -0.211293 0.553772 -1.203759 -0.067553 -0.175322 -1.204042 -0.064562 -0.173722 1.019523 4.990445 2.938746 0.000000 0.000000 0.000000 0.793492 5.236334 -13.576404 3.677049 -22.200167 -65.395836 -0.649104 -7.963712 -4.932200 -13.644455 14.784081 2.408029 0.000000 -0.000000 0.000000 1.976088 -0.933501 21.878107 15.420664 27.017044 53.224800 -0.949991 12.898226 5.181283 -40.076206 -11.401963 -4.059916 -0.000000 0.000000 0.000000 
-0.002722 -0.275211 0.029244 -1.372203 -5.216080 0.177561 0.376303 6.668155 -0.105957 5.407371 0.949373 -0.485036 -4.386977 0.014735 0.331698 0.000000 0.000000 0.000000 -5.767679 -7.385208 1.258502 15.625409 2.907928 -1.142139 -8.436633 0.173407 -1.764467 0.000000 0.000000 0.000000 0.301707 -0.212717 0.555735 -1.204433 -0.068064 -0.174414 -1.204718 -0.065050 -0.172801 1.017420 4.981207 2.965186 0.000000 0.000000 0.000000 0.791197 5.242629 -13.566426 3.666358 -22.206068 -65.407333 -0.648874 -7.958985 -4.932179 -13.634229 14.779490 2.411293 0.000000 0.000000 0.000000 1.974712 -0.942332 21.860565 15.430655 27.050091 53.206841 -0.952032 12.933928 5.181846 -40.073418 -11.382243 -4.090446 -0.000000 0.000000 0.000000 
-0.002722 -0.275211 0.029244 -1.385286 -5.198275 0.166848 0.375523 6.677835 -0.092180 5.433096 0.928178 -0.483865 -4.400107 0.016268 0.329818 0.000000 0.000000 0.000000 -5.744588 -7.380634 1.269984 15.614694 2.899953 -1.140261 -8.434928 0.172550 -1.764750 0.000000 0.000000 0.000000 0.301836 -0.214344 0.558128 -1.203472 -0.068657 -0.174087 -1.203760 -0.065612 -0.172462 1.004112 4.973318 2.993343 0.000000 0.000000 0.000000 0.788423 5.250664 -13.554241 3.646769 -22.209208 -65.424133 -0.647850 -7.938065 -4.931973 -13.629060 14.759328 2.412575 0.000000 0.000000 0.000000 1.973806 -0.949269 21.847773 15.417363 27.066090 53.205986 -0.952245 12.937830 5.181885 -40.088425 -11.334265 -4.120829 -0.000000 0.000000 0.000000 
